<svg id="svg" xmlns="http://www.w3.org/2000/svg" xmlns:xlink="http://www.w3.org/1999/xlink" width="400" height="195.75328614762387" viewBox="0, 0, 400,195.75328614762387" version="1.1"><g id="svgg"><path id="path0" d="M119.824 0.133 C 72.876 0.339,35.704 1.411,25.746 2.847 C 22.456 3.322,17.656 4.638,16.964 5.256 C 16.765 5.434,16.588 5.552,16.573 5.517 C 16.531 5.424,15.394 5.876,15.276 6.033 C 15.157 6.190,12.378 8.027,12.259 8.027 C 12.049 8.027,10.697 9.277,9.506 10.573 C 8.824 11.315,7.570 13.260,6.855 14.684 C 6.504 15.384,6.141 15.986,6.049 16.021 C 5.615 16.187,4.263 21.832,3.723 25.730 C 2.295 36.045,1.046 58.984,0.192 90.597 C -0.010 98.067,0.074 103.258,0.688 121.292 C 1.625 148.763,2.984 168.032,4.423 174.254 C 5.075 177.069,5.746 179.384,5.979 179.617 C 6.115 179.753,6.511 180.430,6.860 181.121 C 7.684 182.754,9.179 184.926,10.121 185.859 C 11.167 186.895,12.136 187.763,12.246 187.763 C 12.372 187.763,15.148 189.589,15.274 189.755 C 15.477 190.021,18.025 191.107,18.198 191.000 C 18.297 190.939,18.432 190.977,18.498 191.085 C 18.619 191.280,20.954 192.013,22.810 192.437 C 27.988 193.622,41.519 194.395,67.744 195.004 C 92.575 195.580,111.001 195.673,200.000 195.673 C 307.545 195.673,332.067 195.434,359.178 194.116 C 370.943 193.545,375.746 192.991,379.834 191.733 C 380.749 191.451,381.604 191.200,381.733 191.175 C 382.319 191.061,384.257 190.017,385.883 188.941 C 386.861 188.293,387.697 187.763,387.741 187.763 C 387.845 187.763,388.988 186.803,389.510 186.277 C 391.008 184.768,392.087 183.214,393.268 180.862 C 393.660 180.081,394.050 179.397,394.135 179.343 C 394.343 179.209,395.177 176.178,395.671 173.764 C 397.007 167.228,398.238 150.443,399.115 126.774 C 400.118 99.721,400.118 96.069,399.115 69.016 C 397.960 37.844,396.020 17.695,394.051 16.400 C 393.927 16.319,393.917 16.254,394.028 16.251 C 394.139 16.247,394.129 16.182,394.005 16.101 C 393.884 16.022,393.499 15.384,393.150 14.684 C 392.801 13.984,392.216 12.993,391.852 12.481 C 391.488 11.969,391.189 11.485,391.188 11.404 C 391.186 10.985,388.683 8.738,386.882 7.538 C 385.751 6.784,384.782 6.114,384.728 6.048 C 384.518 5.791,383.401 5.309,383.285 5.425 C 383.217 5.492,383.162 5.447,383.162 5.325 C 383.162 5.111,379.210 3.803,377.190 3.349 C 370.562 1.860,350.752 0.994,309.055 0.372 C 296.928 0.192,149.189 0.005,119.824 0.133 " stroke="none" fill="#b4b4b4" fill-rule="evenodd"></path><path id="path1" d="" stroke="none" fill="#b8b4b4" fill-rule="evenodd"></path></g></svg>