<svg xmlns="http://www.w3.org/2000/svg" width="1324" height="949" viewBox="0 0 1324 949" version="1.1"><path d="M 332.500 0.629 C 219.585 2.785, 141.043 7.126, 107.907 13.043 C 50.828 23.236, 23.648 55.667, 14.080 125 C 8.410 166.092, 4.647 240.729, 0.997 384.500 C -0.270 434.411, -0.268 514.482, 1 565 C 4.414 700.924, 8.420 782.561, 13.563 821 C 21.991 883.995, 43.703 916.606, 86.777 930.964 C 112.230 939.448, 153.548 943.126, 269.500 947.227 C 321.493 949.066, 1002.718 949.054, 1058.500 947.213 C 1175.867 943.340, 1220.105 938.678, 1247.500 927.296 C 1263.008 920.853, 1281.407 904.545, 1289.775 889.826 C 1307.356 858.904, 1313.094 823.830, 1317.970 717.500 C 1320.210 668.643, 1322.986 579.053, 1322.995 555.309 C 1322.998 546.933, 1323.410 540.865, 1324 540.500 C 1324.650 540.098, 1325 516.637, 1325 473.382 C 1325 436.807, 1324.622 407.116, 1324.159 407.402 C 1323.697 407.687, 1323.016 392.976, 1322.647 374.711 C 1320.402 263.760, 1314.873 156.958, 1309.407 119 C 1305.816 94.054, 1297.541 70.584, 1286.667 54.500 C 1280.699 45.674, 1267.557 33.002, 1259.276 28.089 C 1230.583 11.066, 1199.539 7.140, 1052 1.879 C 1024.818 0.909, 376.774 -0.216, 332.500 0.629 M 423.500 38.082 C 296.852 39.053, 249.169 40.225, 181.500 44.029 C 111.721 47.951, 97.099 51.863, 76.997 71.989 C 65.784 83.214, 56.540 102.618, 52.968 122.424 C 46.681 157.290, 42.827 229.419, 38.991 384 C 36.521 483.564, 39.268 636.653, 45.549 749.500 C 49.427 819.159, 52.668 837.221, 65.829 862.500 C 71.028 872.485, 84.115 885.463, 94.035 890.472 C 114.356 900.730, 127.205 902.493, 214.500 906.997 C 286.388 910.706, 549.955 912.453, 820 911.010 C 1009.785 909.996, 1078.640 909.061, 1113 907.030 C 1122.625 906.461, 1138.150 905.544, 1147.500 904.993 C 1188.143 902.595, 1206.020 900.107, 1220.864 894.781 C 1231.527 890.956, 1235.833 888.069, 1246.392 877.667 C 1253.292 870.869, 1255.463 867.907, 1259.338 860 C 1261.898 854.775, 1265.138 847.493, 1266.538 843.818 C 1275.261 820.914, 1279.226 766.702, 1284.227 602 C 1285.859 548.251, 1285.851 400.236, 1284.214 347 C 1280.612 229.934, 1276.919 161.212, 1272.456 128.264 C 1271.325 119.911, 1269.810 114.139, 1266.552 105.764 C 1258.130 84.119, 1257.430 82.961, 1245.419 70.806 C 1238.866 64.175, 1234.909 61.109, 1229.130 58.186 C 1209.704 48.361, 1194.966 46.426, 1106 42.021 C 1061.149 39.800, 997.930 39.018, 822.500 38.514 C 722.950 38.228, 614.275 37.847, 581 37.666 C 547.725 37.486, 476.850 37.673, 423.500 38.082 M 0.472 474.500 C 0.472 511.350, 0.597 526.280, 0.750 507.677 C 0.902 489.075, 0.902 458.925, 0.749 440.677 C 0.597 422.430, 0.472 437.650, 0.472 474.500" stroke="none" fill="#fffcfc" fill-rule="evenodd"/></svg>