<svg xmlns="http://www.w3.org/2000/svg" width="1250" height="875" viewBox="0 0 1250 875" version="1.1"><path d="M 270.500 1.014 C 245.200 1.458, 215.950 2.300, 205.500 2.885 C 195.050 3.469, 178.175 4.195, 168 4.497 C 157.825 4.800, 145 5.485, 139.500 6.020 C 134 6.556, 122.975 7.451, 115 8.011 C 90.346 9.741, 75.448 12.206, 66.500 16.035 C 52.338 22.095, 47.183 25.644, 36.837 36.458 C 30.701 42.871, 19.496 65.665, 16.907 77 C 10.127 106.683, 6.194 171.272, 1.804 325 C -0.996 423.046, 0.801 559.784, 6.535 685 C 10.096 762.778, 13.483 791.243, 21.535 811.065 C 28.333 827.801, 32.755 834.681, 43.300 844.930 C 49.807 851.254, 62.219 858.190, 72.928 861.486 C 79.608 863.542, 94.306 865.639, 111.500 866.989 C 118.650 867.550, 129.450 868.473, 135.500 869.039 C 141.550 869.605, 158.650 870.539, 173.500 871.115 C 188.350 871.691, 210.400 872.598, 222.500 873.132 C 234.935 873.680, 382.106 874.334, 561 874.637 C 871.222 875.163, 1022.501 874.368, 1059.500 872.019 C 1068.300 871.460, 1084.500 870.542, 1095.500 869.980 C 1156.599 866.854, 1175.669 863.885, 1193.709 854.692 C 1201.445 850.749, 1212.870 839.793, 1218.939 830.497 C 1224.665 821.725, 1232.429 802.114, 1234.396 791.454 C 1240.932 756.034, 1246.070 658.882, 1248.635 522.211 C 1249.009 502.253, 1249.695 485.689, 1250.158 485.402 C 1250.621 485.116, 1251 463.282, 1251 436.882 C 1251 405.137, 1250.661 389.091, 1250 389.500 C 1249.350 389.902, 1248.998 384.759, 1248.994 374.809 C 1248.979 332.258, 1244.869 212.333, 1241.444 154.500 C 1238.362 102.464, 1235.795 82.552, 1230.386 68.706 C 1223.793 51.831, 1220.317 45.602, 1212.644 36.900 C 1202.021 24.854, 1199.222 22.831, 1184 16.199 C 1174.826 12.202, 1162.075 10.018, 1136 7.975 C 1129.125 7.436, 1118.550 6.531, 1112.500 5.964 C 1106.450 5.397, 1088.450 4.459, 1072.500 3.881 C 1056.550 3.302, 1032.925 2.408, 1020 1.894 C 990.140 0.707, 332.011 -0.066, 270.500 1.014 M 0.463 438 C 0.463 464.675, 0.592 475.587, 0.749 462.250 C 0.907 448.913, 0.907 427.087, 0.749 413.750 C 0.592 400.413, 0.463 411.325, 0.463 438" stroke="none" fill="#b8b4b4" fill-rule="evenodd"/></svg>